<svg height="512pt" viewBox="0 0 512 512" width="512pt" xmlns="http://www.w3.org/2000/svg"><path d="m497.007812 46.078125h-52.855468l.039062-31.085937c0-8.277344-6.714844-14.992188-14.996094-14.992188-8.277343 0-14.992187 6.714844-14.992187 14.992188l-.035156 31.085937h-39.042969l.035156-31.085937c0-8.277344-6.710937-14.992188-14.992187-14.992188s-14.992188 6.714844-14.992188 14.992188l-.039062 31.085937h-39.039063l.035156-31.085937c0-8.277344-6.710937-14.992188-14.992187-14.992188s-14.992187 6.714844-14.992187 14.992188l-.039063 31.085937h-39.039063l.035157-31.085937c0-8.277344-6.710938-14.992188-14.992188-14.992188s-14.992187 6.714844-14.992187 14.992188l-.039063 31.085937h-39.042969l.039063-31.085937c0-8.277344-6.714844-14.992188-14.992187-14.992188-8.28125 0-14.996094 6.714844-14.996094 14.992188l-.035156 31.085937h-39.039063l.035156-31.085937c0-8.277344-6.710937-14.992188-14.992187-14.992188s-14.992188 6.714844-14.992188 14.992188l-.039062 31.085937h-54.035156c-8.277344 0-14.992188 6.714844-14.992188 14.996094v388.75c0 34.132812 27.769531 61.902343 61.90625 61.902343h388.1875c34.136719 0 61.90625-27.769531 61.90625-61.902343v-388.75c0-8.28125-6.714844-14.996094-14.992188-14.996094zm-427.980468 29.988281v27.257813c0 8.28125 6.714844 14.992187 14.992187 14.992187 8.28125 0 14.996094-6.710937 14.996094-14.992187v-27.257813h39.039063v27.257813c0 8.28125 6.714843 14.992187 14.996093 14.992187 8.277344 0 14.992188-6.710937 14.992188-14.992187v-27.257813h39.042969v27.257813c0 8.28125 6.710937 14.992187 14.992187 14.992187s14.992187-6.710937 14.992187-14.992187v-27.257813h39.042969v27.257813c0 8.28125 6.710938 14.992187 14.992188 14.992187s14.992187-6.710937 14.992187-14.992187v-27.257813h39.042969v27.257813c0 8.28125 6.710937 14.992187 14.992187 14.992187s14.992188-6.710937 14.992188-14.992187v-27.257813h39.042969v27.257813c0 8.28125 6.714843 14.992187 14.992187 14.992187 8.28125 0 14.996094-6.710937 14.996094-14.992187v-27.257813h37.859375v73.269532h-452.03125v-73.269532zm381.066406 405.675782h-388.1875c-17.601562 0-31.921875-14.320313-31.921875-31.917969v-270.503907h452.03125v270.503907c0 17.597656-14.320313 31.917969-31.921875 31.917969zm0 0"/><path d="m154.105469 216.21875h-66.007813c-8.28125 0-14.992187 6.714844-14.992187 14.992188v65.433593c0 8.277344 6.710937 14.992188 14.992187 14.992188h66.007813c8.28125 0 14.996093-6.714844 14.996093-14.992188v-65.433593c0-8.277344-6.714843-14.992188-14.996093-14.992188zm-14.992188 65.429688h-36.023437v-35.445313h36.023437zm0 0"/><path d="m289.144531 216.21875h-66.011719c-8.277343 0-14.992187 6.714844-14.992187 14.992188v65.433593c0 8.277344 6.714844 14.992188 14.992187 14.992188h66.011719c8.28125 0 14.992188-6.714844 14.992188-14.992188v-65.433593c0-8.277344-6.710938-14.992188-14.992188-14.992188zm-14.992187 65.429688h-36.023438v-35.445313h36.023438zm0 0"/><path d="m424.179688 216.21875h-66.007813c-8.28125 0-14.992187 6.714844-14.992187 14.992188v65.433593c0 8.277344 6.710937 14.992188 14.992187 14.992188h66.007813c8.28125 0 14.996093-6.714844 14.996093-14.992188v-65.433593c0-8.277344-6.714843-14.992188-14.996093-14.992188zm-14.992188 65.429688h-36.023438v-35.445313h36.023438zm0 0"/><path d="m154.105469 341.625h-66.007813c-8.28125 0-14.992187 6.714844-14.992187 14.996094v65.429687c0 8.28125 6.710937 14.992188 14.992187 14.992188h66.007813c8.28125 0 14.996093-6.710938 14.996093-14.992188v-65.429687c0-8.28125-6.714843-14.996094-14.996093-14.996094zm-14.992188 65.433594h-36.023437v-35.445313h36.023437zm0 0"/><path d="m289.144531 341.625h-66.011719c-8.277343 0-14.992187 6.714844-14.992187 14.996094v65.429687c0 8.28125 6.714844 14.992188 14.992187 14.992188h66.011719c8.28125 0 14.992188-6.710938 14.992188-14.992188v-65.429687c0-8.28125-6.710938-14.996094-14.992188-14.996094zm-14.992187 65.433594h-36.023438v-35.445313h36.023438zm0 0"/><path d="m424.179688 341.625h-66.007813c-8.28125 0-14.992187 6.714844-14.992187 14.996094v65.429687c0 8.28125 6.710937 14.992188 14.992187 14.992188h66.007813c8.28125 0 14.996093-6.710938 14.996093-14.992188v-65.429687c0-8.28125-6.714843-14.996094-14.996093-14.996094zm-14.992188 65.433594h-36.023438v-35.445313h36.023438zm0 0"/></svg>