<svg height="511pt" viewBox="-98 1 511 511.999" width="511pt" xmlns="http://www.w3.org/2000/svg"><path d="m223.914062 368.613281h-130.9375c-8.285156 0-15-6.714843-15-15 0-32.058593-12.269531-62.789062-34.542968-86.527343-27.085938-28.859376-42.328125-66.578126-42.917969-106.199219-.632813-42.488281 15.632813-82.777344 45.792969-113.453125 30-30.507813 69.714844-47.355469 111.828125-47.433594h.3125c42.03125 0 81.578125 16.371094 111.382812 46.121094 30.023438 29.964844 46.558594 69.867187 46.558594 112.351562 0 40.742188-15.378906 79.453125-43.304687 109.007813-22.039063 23.324219-34.171876 53.910156-34.171876 86.132812 0 8.28125-6.71875 15-15 15zm-116.664062-30h102.375c3.28125-34.339843 17.78125-66.46875 41.652344-91.734375 22.644531-23.964844 35.109375-55.359375 35.109375-88.40625 0-34.460937-13.40625-66.824218-37.75-91.121094-24.136719-24.089843-56.160157-37.351562-90.191407-37.351562-.085937 0-.164062 0-.25 0-34.023437.0625-66.164062 13.726562-90.492187 38.46875-24.496094 24.90625-37.703125 57.566406-37.1875 91.96875.476563 32.132812 12.832031 62.71875 34.792969 86.117188 24.027344 25.605468 38.628906 57.847656 41.941406 92.058593zm0 0"/><path d="m221.953125 416.410156h-127.019531c-8.285156 0-15-6.714844-15-15s6.714844-15 15-15h127.019531c8.285156 0 15 6.714844 15 15s-6.714844 15-15 15zm0 0"/><path d="m221.953125 464.203125h-127.019531c-8.285156 0-15-6.714844-15-15 0-8.28125 6.714844-15 15-15h127.019531c8.285156 0 15 6.71875 15 15 0 8.285156-6.714844 15-15 15zm0 0"/><path d="m198.582031 512h-80.277343c-8.28125 0-15-6.71875-15-15 0-8.285156 6.71875-15 15-15h80.277343c8.285157 0 15 6.714844 15 15 0 8.28125-6.714843 15-15 15zm0 0"/></svg>