<svg height="512pt" viewBox="0 -26 512 512" width="512pt" xmlns="http://www.w3.org/2000/svg"><path d="m497 129.839844h-14.386719v-114.839844c0-8.285156-6.714843-15-15-15h-417.144531c-8.285156 0-15 6.714844-15 15v42.519531h-20.46875c-8.285156 0-15 6.714844-15 15v372.792969c0 8.285156 6.714844 15 15 15h482c8.285156 0 15-6.714844 15-15v-300.472656c0-8.285156-6.714844-15-15-15zm-431.53125-99.839844h387.144531v99.839844h-166.777343c-27.472657-44.835938-76.179688-72.324219-129.222657-72.324219h-91.144531zm416.53125 400.3125h-452v-342.792969h126.613281c45.003907 0 86.117188 24.667969 107.296875 64.378907 2.605469 4.886718 7.695313 7.941406 13.234375 7.941406h204.855469zm0 0"/><path d="m149.496094 353.429688h-79.523438c-8.285156 0-15 6.714843-15 15 0 8.285156 6.714844 15 15 15h79.523438c8.285156 0 15-6.714844 15-15 0-8.285157-6.714844-15-15-15zm0 0"/><path d="m202.503906 230.210938c7.898438-10.199219 12.617188-22.984376 12.617188-36.855469 0-33.257813-27.054688-60.3125-60.3125-60.3125-33.257813 0-60.316406 27.058593-60.316406 60.3125 0 13.871093 4.71875 26.65625 12.617187 36.855469-30.585937 12.804687-52.136719 43.042968-52.136719 78.226562 0 8.28125 6.714844 15 15 15h169.667969c8.285156 0 15-6.71875 15-15 0-35.183594-21.546875-65.417969-52.136719-78.226562zm-47.695312-67.167969c16.714844 0 30.3125 13.597656 30.3125 30.3125 0 16.71875-13.597656 30.316406-30.3125 30.316406s-30.316406-13.597656-30.316406-30.316406c0-16.714844 13.601562-30.3125 30.316406-30.3125zm-67.746094 130.394531c6.539062-22.929688 27.675781-39.765625 52.675781-39.765625h30.140625c24.996094 0 46.136719 16.835937 52.675782 39.765625zm0 0"/></svg>